<?xml version="1.0" standalone="no"?>
<!DOCTYPE svg PUBLIC "-//W3C//DTD SVG 20010904//EN"
 "http://www.w3.org/TR/2001/REC-SVG-20010904/DTD/svg10.dtd">
<svg version="1.0" xmlns="http://www.w3.org/2000/svg"
 width="500.000000pt" height="500.000000pt" viewBox="0 0 500.000000 500.000000"
 preserveAspectRatio="xMidYMid meet">

<g transform="translate(0.000000,500.000000) scale(0.100000,-0.100000)"
fill="#4052B5" stroke="none">
<path d="M0 2500 l0 -2500 2500 0 2500 0 0 2500 0 2500 -2500 0 -2500 0 0
-2500z m4283 1541 l157 -1 0 -53 c0 -75 -46 -165 -108 -213 -99 -75 39 -69
-1499 -72 l-1383 -2 0 63 c0 133 104 252 242 275 32 6 1869 8 2591 3z m-653
-572 c0 -103 -67 -245 -157 -330 -70 -67 -108 -90 -193 -121 l-65 -23 -760 -5
c-847 -6 -791 -1 -876 -77 -33 -30 -59 -72 -119 -199 -43 -88 -81 -170 -84
-182 l-7 -22 840 0 841 0 0 -25 c0 -56 -33 -184 -65 -250 -41 -85 -117 -165
-194 -202 l-56 -28 -802 1 -802 0 -45 -95 c-24 -53 -79 -170 -120 -260 l-76
-164 599 6 c329 3 765 3 970 0 l371 -6 0 -31 c0 -17 -6 -53 -14 -81 -46 -174
-182 -319 -360 -384 l-71 -26 -872 -3 c-1004 -3 -903 -13 -1016 101 -104 105
-153 235 -145 382 3 44 14 105 25 135 11 30 195 433 409 894 328 708 396 847
433 889 54 59 100 90 178 116 57 20 83 20 1146 21 l1087 0 0 -31z m630 -199
l0 -230 230 0 230 0 0 -135 0 -135 -230 0 -230 0 0 -230 0 -230 -130 0 -130 0
0 230 0 230 -230 0 -230 0 0 135 0 135 230 0 230 0 0 230 0 230 130 0 130 0 0
-230z m-510 -1360 l0 -230 230 0 230 0 0 -135 0 -135 -230 0 -230 0 -2 -227
-3 -228 -132 -3 -133 -3 0 231 0 230 -230 0 -230 0 0 135 0 135 230 0 230 0 0
230 0 230 135 0 135 0 0 -230z"/>
</g>
</svg>
